<?xml version="1.0" encoding="utf-8"?>
<!-- Generator: Adobe Illustrator 24.1.3, SVG Export Plug-In . SVG Version: 6.00 Build 0)  -->
<svg version="1.1" id="Слой_1" xmlns="http://www.w3.org/2000/svg" xmlns:xlink="http://www.w3.org/1999/xlink" x="0px" y="0px"
	 viewBox="0 0 260 160" style="enable-background:new 0 0 260 160;" xml:space="preserve">
<style type="text/css">
	.st0{fill:none;stroke:#BA1C2F;stroke-miterlimit:10;}
	.st1{fill:#FFFFFF;}
</style>
<rect x="0.62" y="0.71" class="st0" width="259.67" height="159.65"/>
<path class="st1" d="M20.75,101.77c0-0.29,0.14-0.43,0.41-0.43h4.47c0.59,0,1.13,0.11,1.64,0.33c0.51,0.22,0.95,0.52,1.32,0.91
	c0.37,0.38,0.66,0.82,0.87,1.33c0.22,0.5,0.32,1.04,0.32,1.6c0,0.56-0.11,1.09-0.32,1.59c-0.21,0.5-0.5,0.94-0.87,1.31
	c-0.37,0.38-0.8,0.68-1.3,0.9c-0.5,0.22-1.04,0.33-1.62,0.33h-3.38v4.65c0,0.26-0.14,0.4-0.41,0.4h-0.76c-0.26,0-0.4-0.13-0.4-0.4
	V101.77z M28.24,105.5c0-0.35-0.07-0.68-0.21-0.99c-0.13-0.32-0.32-0.6-0.55-0.84c-0.23-0.24-0.51-0.43-0.83-0.58
	c-0.32-0.14-0.66-0.22-1.02-0.22h-3.33v5.25h3.33c0.35,0,0.69-0.07,1-0.21c0.32-0.14,0.59-0.34,0.83-0.58
	c0.24-0.25,0.43-0.53,0.57-0.84C28.17,106.19,28.24,105.85,28.24,105.5z M41.32,101.34c0.27,0,0.4,0.14,0.4,0.42v0.73
	c0,0.11-0.04,0.2-0.11,0.29c-0.07,0.08-0.18,0.13-0.32,0.13h-7.48v3.98h5.95c0.11,0,0.2,0.03,0.28,0.1s0.12,0.17,0.12,0.32v0.74
	c0,0.11-0.03,0.2-0.1,0.29c-0.07,0.08-0.17,0.13-0.3,0.13h-5.95v4.69h7.56c0.27,0,0.4,0.14,0.4,0.42v0.75c0,0.26-0.13,0.4-0.4,0.4
	h-8.73c-0.26,0-0.4-0.13-0.4-0.38v-12.57c0-0.28,0.13-0.41,0.4-0.41H41.32z M49.68,99.7c-0.32-0.01-0.61-0.07-0.88-0.18
	c-0.27-0.12-0.51-0.27-0.71-0.46c-0.2-0.19-0.35-0.41-0.47-0.66c-0.11-0.25-0.17-0.5-0.17-0.77c0-0.1,0.03-0.19,0.1-0.25
	c0.07-0.07,0.16-0.1,0.25-0.1h0.6c0.11,0,0.19,0.04,0.26,0.11c0.07,0.07,0.1,0.15,0.1,0.24c0,0.21,0.08,0.4,0.24,0.56
	c0.16,0.16,0.4,0.24,0.71,0.24c0.27,0,0.49-0.07,0.65-0.22c0.17-0.14,0.25-0.31,0.25-0.5c0-0.1,0.02-0.2,0.06-0.29
	c0.05-0.1,0.14-0.14,0.29-0.14h0.52c0.11,0,0.22,0.03,0.31,0.08c0.1,0.05,0.14,0.14,0.14,0.27c0,0.27-0.06,0.53-0.18,0.78
	c-0.11,0.25-0.27,0.47-0.48,0.66c-0.2,0.19-0.44,0.35-0.72,0.46C50.3,99.65,50,99.7,49.68,99.7z M45.3,114.71
	c0.13,0,0.24-0.06,0.33-0.17l8.21-10.77v10.55c0,0.26,0.14,0.4,0.41,0.4H55c0.26,0,0.4-0.13,0.4-0.4v-12.55
	c0-0.12-0.04-0.22-0.11-0.3c-0.07-0.08-0.17-0.12-0.29-0.12h-1c-0.14,0-0.25,0.06-0.34,0.18l-8.08,10.52v-10.35
	c-0.01-0.11-0.05-0.19-0.13-0.25c-0.07-0.07-0.16-0.1-0.27-0.1h-0.74c-0.11,0-0.21,0.04-0.3,0.11c-0.09,0.07-0.14,0.17-0.14,0.29
	v12.57c0,0.26,0.14,0.4,0.43,0.4H45.3z M66.96,101.34c0.11,0,0.2,0.03,0.29,0.1s0.13,0.17,0.14,0.3v0.74c0,0.12-0.04,0.22-0.12,0.31
	c-0.07,0.08-0.18,0.13-0.31,0.13h-3.84v11.39c0,0.11-0.04,0.21-0.11,0.29c-0.07,0.08-0.17,0.12-0.31,0.12h-0.73
	c-0.12,0-0.22-0.04-0.3-0.11c-0.08-0.08-0.12-0.18-0.12-0.3v-11.39H57.7c-0.12,0-0.22-0.03-0.3-0.1c-0.07-0.07-0.11-0.18-0.11-0.33
	v-0.74c0-0.12,0.04-0.22,0.11-0.29c0.08-0.07,0.18-0.11,0.3-0.11H66.96z M71.31,114.71c0.13,0,0.24-0.06,0.33-0.17l8.21-10.77v10.55
	c0,0.26,0.14,0.4,0.41,0.4h0.75c0.26,0,0.4-0.13,0.4-0.4v-12.55c0-0.12-0.04-0.22-0.11-0.3c-0.07-0.08-0.17-0.12-0.29-0.12h-1
	c-0.14,0-0.25,0.06-0.34,0.18l-8.08,10.52v-10.35c-0.01-0.11-0.05-0.19-0.13-0.25c-0.07-0.07-0.16-0.1-0.27-0.1h-0.74
	c-0.11,0-0.21,0.04-0.3,0.11c-0.09,0.07-0.13,0.17-0.13,0.29v12.57c0,0.26,0.14,0.4,0.43,0.4H71.31z M93.94,101.74
	c0-0.11,0.04-0.2,0.11-0.28c0.07-0.08,0.17-0.12,0.29-0.12h0.74c0.11,0,0.2,0.04,0.29,0.11c0.09,0.07,0.14,0.17,0.14,0.29v12.57
	c0,0.26-0.14,0.4-0.42,0.4h-0.74c-0.26,0-0.4-0.13-0.4-0.4v-5.86H86v5.86c0,0.26-0.14,0.4-0.43,0.4h-0.73c-0.26,0-0.4-0.13-0.4-0.4
	v-12.57c0-0.11,0.03-0.2,0.1-0.28c0.07-0.08,0.17-0.12,0.3-0.12h0.75c0.11,0,0.2,0.04,0.29,0.12c0.08,0.08,0.13,0.17,0.13,0.28v5.18
	h7.95V101.74z M106.59,102.88c0.11,0,0.2-0.04,0.28-0.11c0.08-0.07,0.12-0.17,0.12-0.31v-0.73c0-0.11-0.04-0.2-0.11-0.28
	c-0.07-0.08-0.17-0.12-0.29-0.12h-7.65c-0.26,0-0.4,0.13-0.4,0.4v12.57c0,0.11,0.04,0.2,0.11,0.28c0.07,0.08,0.17,0.12,0.31,0.12
	h0.75c0.11,0,0.21-0.03,0.28-0.1c0.08-0.07,0.12-0.17,0.12-0.3v-11.43H106.59z M121.63,102.34c0.79,0.1,1.52,0.31,2.2,0.65
	c0.68,0.33,1.27,0.75,1.76,1.26c0.5,0.51,0.9,1.09,1.18,1.75c0.29,0.65,0.43,1.33,0.43,2.06c0,0.73-0.14,1.42-0.43,2.07
	c-0.28,0.65-0.67,1.22-1.17,1.73c-0.5,0.5-1.09,0.92-1.76,1.26c-0.68,0.33-1.41,0.54-2.21,0.63v0.57c0,0.13-0.04,0.23-0.11,0.3
	c-0.07,0.07-0.17,0.1-0.3,0.1h-0.75c-0.27,0-0.4-0.13-0.4-0.4v-0.58c-0.78-0.1-1.51-0.31-2.18-0.64c-0.67-0.33-1.25-0.75-1.75-1.25
	c-0.49-0.5-0.88-1.08-1.16-1.73c-0.28-0.65-0.42-1.34-0.42-2.07c0-0.72,0.14-1.4,0.42-2.05c0.28-0.65,0.67-1.22,1.16-1.73
	c0.5-0.5,1.08-0.92,1.75-1.26c0.67-0.34,1.4-0.56,2.18-0.66v-0.6c0-0.12,0.03-0.22,0.1-0.29c0.07-0.07,0.17-0.11,0.31-0.11h0.75
	c0.12,0,0.22,0.04,0.29,0.11c0.08,0.07,0.12,0.17,0.12,0.29V102.34z M125.63,108.04c0-0.55-0.1-1.05-0.3-1.52
	c-0.2-0.47-0.47-0.89-0.83-1.25c-0.35-0.36-0.78-0.66-1.27-0.89c-0.49-0.24-1.02-0.4-1.6-0.49v8.3c0.58-0.09,1.11-0.25,1.59-0.49
	c0.49-0.24,0.92-0.54,1.27-0.9c0.36-0.36,0.64-0.77,0.84-1.23C125.53,109.1,125.63,108.59,125.63,108.04z M116.11,108.04
	c0,0.55,0.1,1.05,0.29,1.52c0.2,0.47,0.47,0.88,0.82,1.24c0.35,0.36,0.77,0.66,1.25,0.9c0.49,0.23,1.02,0.4,1.6,0.49v-8.28
	c-0.58,0.08-1.11,0.24-1.59,0.48s-0.91,0.53-1.26,0.89c-0.35,0.36-0.62,0.77-0.82,1.24C116.21,106.98,116.11,107.49,116.11,108.04z
	 M130.81,101.77c0-0.29,0.14-0.43,0.41-0.43h4.47c0.59,0,1.13,0.11,1.64,0.33c0.51,0.22,0.95,0.52,1.32,0.91
	c0.37,0.38,0.66,0.82,0.87,1.33c0.22,0.5,0.32,1.04,0.32,1.6c0,0.56-0.1,1.09-0.31,1.59c-0.21,0.5-0.5,0.94-0.87,1.31
	c-0.37,0.38-0.8,0.68-1.31,0.9c-0.5,0.22-1.04,0.33-1.62,0.33h-3.38v4.65c0,0.26-0.13,0.4-0.4,0.4h-0.76c-0.26,0-0.4-0.13-0.4-0.4
	V101.77z M138.3,105.5c0-0.35-0.07-0.68-0.21-0.99c-0.13-0.32-0.32-0.6-0.55-0.84c-0.23-0.24-0.51-0.43-0.83-0.58
	c-0.32-0.14-0.66-0.22-1.02-0.22h-3.33v5.25h3.33c0.35,0,0.69-0.07,1-0.21c0.32-0.14,0.59-0.34,0.83-0.58
	c0.24-0.25,0.43-0.53,0.57-0.84C138.23,106.19,138.3,105.85,138.3,105.5z M143.05,114.35c-0.1,0.24-0.26,0.36-0.49,0.36h-0.77
	c-0.26,0-0.39-0.1-0.39-0.29c0-0.05,0.01-0.11,0.02-0.17c0.01-0.02,0.01-0.04,0.03-0.06c0.65-1.56,1.22-2.93,1.71-4.12
	c0.5-1.19,0.93-2.23,1.3-3.11c0.37-0.88,0.67-1.62,0.93-2.22c0.25-0.6,0.46-1.1,0.62-1.49c0.16-0.4,0.29-0.7,0.38-0.91
	s0.16-0.36,0.2-0.46c0.04-0.1,0.07-0.16,0.07-0.18c0.01-0.02,0.01-0.03,0.01-0.03c0.02-0.07,0.06-0.14,0.12-0.22
	c0.06-0.08,0.17-0.12,0.33-0.12h0.53c0.15,0,0.25,0.04,0.31,0.12c0.06,0.08,0.1,0.15,0.13,0.22l5.18,12.52
	c0,0.01,0.01,0.04,0.03,0.09c0.02,0.05,0.04,0.1,0.04,0.13c0,0.1-0.04,0.17-0.12,0.22c-0.07,0.05-0.17,0.07-0.29,0.07h-0.77
	c-0.12,0-0.22-0.03-0.31-0.09c-0.08-0.07-0.14-0.15-0.18-0.25l-1.04-2.58h-6.54L143.05,114.35z M144.71,110.25h5.26l-2.62-6.59
	L144.71,110.25z M165.25,101.74c0-0.11,0.04-0.2,0.11-0.28c0.07-0.08,0.17-0.12,0.29-0.12h0.74c0.11,0,0.2,0.04,0.29,0.11
	c0.09,0.07,0.13,0.17,0.13,0.29v12.57c0,0.26-0.14,0.4-0.42,0.4h-0.74c-0.26,0-0.4-0.13-0.4-0.4v-5.86h-7.95v5.86
	c0,0.26-0.14,0.4-0.43,0.4h-0.73c-0.26,0-0.4-0.13-0.4-0.4v-12.57c0-0.11,0.03-0.2,0.1-0.28c0.07-0.08,0.17-0.12,0.3-0.12h0.75
	c0.11,0,0.2,0.04,0.29,0.12c0.08,0.08,0.13,0.17,0.13,0.28v5.18h7.95V101.74z M183.98,114.31c0,0.13-0.04,0.23-0.11,0.3
	c-0.07,0.07-0.17,0.1-0.3,0.1h-13.36c-0.09,0-0.18-0.04-0.26-0.12c-0.08-0.08-0.12-0.18-0.12-0.29v-12.59c0-0.1,0.04-0.19,0.11-0.26
	c0.08-0.07,0.17-0.11,0.27-0.11h0.79c0.1,0,0.19,0.04,0.27,0.12c0.08,0.07,0.12,0.16,0.12,0.27v11.42h4.73v-11.44
	c0-0.1,0.04-0.19,0.11-0.26c0.08-0.07,0.17-0.11,0.27-0.11h0.79c0.1,0,0.19,0.04,0.27,0.12c0.08,0.07,0.12,0.16,0.12,0.27v11.42
	h4.72v-11.42c0-0.11,0.04-0.2,0.12-0.27c0.08-0.08,0.17-0.12,0.27-0.12h0.77c0.11,0,0.2,0.04,0.27,0.11
	c0.08,0.07,0.12,0.16,0.12,0.26L183.98,114.31z M188.24,114.71c0.13,0,0.24-0.06,0.33-0.17l8.21-10.77v10.55
	c0,0.26,0.14,0.4,0.41,0.4h0.75c0.26,0,0.4-0.13,0.4-0.4v-12.55c0-0.12-0.04-0.22-0.11-0.3c-0.07-0.08-0.17-0.12-0.29-0.12h-1
	c-0.14,0-0.25,0.06-0.34,0.18l-8.08,10.52v-10.35c-0.01-0.11-0.05-0.19-0.13-0.25c-0.07-0.07-0.16-0.1-0.27-0.1h-0.74
	c-0.11,0-0.21,0.04-0.3,0.11c-0.09,0.07-0.14,0.17-0.14,0.29v12.57c0,0.26,0.14,0.4,0.43,0.4H188.24z M204.99,101.24
	c0.61,0,1.19,0.06,1.74,0.17c0.55,0.11,1.02,0.3,1.43,0.56c0.41,0.25,0.74,0.58,0.97,1c0.24,0.41,0.36,0.91,0.36,1.5
	c0,0.35-0.04,0.65-0.12,0.91c-0.08,0.25-0.18,0.47-0.31,0.67c-0.13,0.19-0.27,0.35-0.43,0.49c-0.16,0.14-0.32,0.27-0.48,0.4
	l-0.32,0.22c0.34,0.19,0.65,0.41,0.92,0.66c0.27,0.24,0.5,0.51,0.68,0.82c0.19,0.3,0.34,0.63,0.44,0.99
	c0.1,0.36,0.15,0.76,0.15,1.19c0,0.71-0.13,1.33-0.4,1.85c-0.26,0.52-0.62,0.94-1.07,1.28c-0.44,0.34-0.96,0.59-1.56,0.76
	c-0.59,0.16-1.21,0.24-1.87,0.24c-0.41,0-0.81-0.02-1.2-0.06c-0.38-0.04-0.75-0.12-1.1-0.23c-0.35-0.11-0.68-0.27-0.98-0.46
	c-0.3-0.19-0.57-0.44-0.82-0.75v0.01c-0.06-0.07-0.09-0.15-0.09-0.23c0-0.08,0.03-0.15,0.09-0.22h-0.01l0.67-0.66
	c0.07-0.07,0.15-0.1,0.24-0.1c0.08,0,0.15,0.02,0.2,0.07l-0.02-0.01c0.17,0.23,0.36,0.43,0.58,0.58c0.22,0.14,0.46,0.26,0.71,0.34
	c0.26,0.08,0.52,0.14,0.8,0.17c0.28,0.03,0.57,0.05,0.86,0.05c0.45,0,0.88-0.04,1.29-0.11c0.41-0.08,0.78-0.22,1.09-0.41
	c0.32-0.2,0.57-0.47,0.76-0.81c0.19-0.34,0.29-0.78,0.29-1.31c0-0.44-0.07-0.82-0.21-1.15c-0.14-0.34-0.34-0.61-0.59-0.83
	c-0.26-0.22-0.57-0.39-0.93-0.5c-0.36-0.11-0.76-0.17-1.21-0.17h-1.61c-0.19,0-0.29-0.1-0.29-0.29v-0.97c0-0.08,0.02-0.15,0.07-0.21
	c0.05-0.06,0.12-0.09,0.22-0.09h1.67c0.28-0.01,0.56-0.05,0.85-0.14c0.28-0.09,0.53-0.22,0.76-0.39s0.4-0.38,0.54-0.63
	c0.14-0.26,0.21-0.56,0.21-0.92c0-0.31-0.09-0.58-0.26-0.81c-0.17-0.23-0.4-0.43-0.68-0.58c-0.28-0.15-0.59-0.26-0.94-0.33
	c-0.35-0.07-0.7-0.11-1.06-0.11c-0.54,0-1.06,0.1-1.55,0.3c-0.49,0.19-0.89,0.49-1.21,0.88c-0.05,0.04-0.12,0.06-0.19,0.06
	c-0.08,0-0.16-0.04-0.23-0.11v0.01l-0.63-0.6h0.01c-0.06-0.07-0.09-0.14-0.09-0.22c0-0.07,0.03-0.14,0.09-0.22
	c0.43-0.52,0.94-0.91,1.55-1.17C203.37,101.37,204.11,101.24,204.99,101.24z M212.47,102.27c0-0.15,0.03-0.29,0.08-0.42
	c0.06-0.13,0.14-0.25,0.23-0.34c0.1-0.1,0.21-0.17,0.34-0.22s0.27-0.08,0.41-0.08c0.16,0,0.3,0.03,0.43,0.09
	c0.13,0.05,0.25,0.13,0.34,0.23c0.1,0.1,0.18,0.22,0.22,0.36c0.05,0.14,0.08,0.3,0.08,0.48c0,0.38-0.04,0.71-0.12,0.99
	c-0.07,0.28-0.16,0.51-0.27,0.69c-0.1,0.19-0.21,0.33-0.31,0.42c-0.11,0.09-0.2,0.13-0.27,0.13c-0.04,0-0.07,0-0.1-0.01
	c-0.02-0.01-0.05-0.03-0.08-0.05l-0.25-0.2c-0.04-0.03-0.07-0.07-0.09-0.11c-0.02-0.05-0.04-0.09-0.04-0.14
	c0-0.05,0.01-0.09,0.04-0.12c0.02-0.03,0.05-0.07,0.09-0.11c0.05-0.05,0.09-0.11,0.12-0.18c0.04-0.08,0.05-0.17,0.05-0.29v-0.05
	c-0.12-0.02-0.24-0.07-0.35-0.13c-0.11-0.07-0.2-0.15-0.29-0.24c-0.08-0.1-0.15-0.21-0.21-0.33
	C212.49,102.53,212.47,102.4,212.47,102.27z M222.2,101.96v12.74h-1.3v-11.14l-2.3,1.96l-0.79-0.9l3.24-2.66H222.2z M233.28,107.96
	c0.71,0.2,1.28,0.61,1.73,1.22c0.46,0.61,0.68,1.34,0.68,2.18c0,1.08-0.4,1.96-1.21,2.65c-0.79,0.68-1.75,1.03-2.88,1.03
	c-1.13,0-2.09-0.34-2.9-1.03c-0.79-0.68-1.19-1.57-1.19-2.65c0-0.84,0.22-1.56,0.67-2.16c0.46-0.61,1.04-1.03,1.75-1.24v-0.04
	c-0.56-0.19-1.03-0.55-1.39-1.08c-0.36-0.54-0.54-1.14-0.54-1.8c0-1.01,0.35-1.82,1.04-2.45c0.71-0.64,1.56-0.95,2.56-0.95
	c1,0,1.84,0.32,2.54,0.95c0.71,0.62,1.06,1.44,1.06,2.45c0,0.66-0.18,1.26-0.54,1.8c-0.36,0.53-0.82,0.89-1.39,1.08V107.96z
	 M229.26,105.11c0,0.66,0.22,1.21,0.67,1.64c0.46,0.43,1.01,0.65,1.67,0.65c0.66,0,1.21-0.22,1.66-0.65
	c0.46-0.43,0.68-0.98,0.68-1.64c0-0.68-0.22-1.25-0.67-1.69c-0.44-0.46-1-0.68-1.67-0.68c-0.67,0-1.23,0.23-1.67,0.68
	C229.48,103.86,229.26,104.43,229.26,105.11z M228.81,111.21c0,0.78,0.26,1.43,0.77,1.94c0.52,0.52,1.19,0.77,2.02,0.77
	c0.83,0,1.5-0.26,2.02-0.77c0.52-0.52,0.77-1.16,0.77-1.94c0-0.77-0.26-1.4-0.77-1.91c-0.52-0.5-1.19-0.76-2.02-0.76
	c-0.83,0-1.5,0.25-2.02,0.76S228.81,110.45,228.81,111.21z"/>
<path class="st1" d="M153.88,44.94c-3.22,0.04-6.39,0.87-9.22,2.43c0-8.48,0.13-15.84,0.32-18.67L128,32.06v1.58l1.67,0.2
	c2.37,0.33,3.27,1.78,3.59,5c0.51,6.25,0.45,39.58,0,44.91c4.74,1.15,9.6,1.77,14.48,1.84c13.45,0,21.59-8.55,21.59-22.09
	C169.25,52.7,162.65,44.94,153.88,44.94L153.88,44.94z M147.98,82.88c-0.96-0.01-1.93-0.1-2.88-0.26
	c-0.26-3.75-0.45-19.2-0.38-32.67c1.27-0.47,2.62-0.69,3.97-0.66c5.57,0,8.71,6.64,8.71,14.92
	C157.34,74.86,153.49,82.88,147.98,82.88L147.98,82.88z M64.2,45.34l-2.63,0.72C59.2,38.17,55.55,33.7,48.7,33.7h-8.84
	c-0.38,5.06-0.58,13.48-0.51,22.22l5.96-0.2c3.97-0.13,5.57-3.16,6.53-7.56h2.24v18.54h-2.24c-0.96-4.47-2.63-7.5-6.6-7.63
	l-5.89-0.2c0.06,6.64,0.26,12.29,0.51,15.65c0.38,4.93,1.73,7.1,5.12,7.63l3.01,0.33v2.24h-28.7v-2.23l2.37-0.33
	c3.4-0.53,4.74-2.7,5.12-7.63c0.64-8.15,0.77-25.05,0-34.52c-0.38-4.86-1.73-7.04-5.12-7.56l-2.37-0.33v-2.17h44.65L64.2,45.34
	L64.2,45.34z M78.48,44.48c12.68,0,18.96,8.81,18.96,20.51c0,11.7-7.11,20.64-19.79,20.64c-12.68,0-19.03-8.81-19.03-20.45
	C58.62,53.56,65.73,44.48,78.48,44.48L78.48,44.48z M77.84,46.98c-5.64,0-7.17,7.76-7.17,18.08c0,10.32,2.5,18.08,7.69,18.08
	c5.19,0,7.17-7.76,7.17-18.08c0-10.32-2.56-18.01-7.75-18.01L77.84,46.98L77.84,46.98z M172.39,65.46c0-10.78,6.6-20.91,19.73-20.91
	c10.63,0,15.69,8.09,15.76,18.67h-23.76c-0.26,9.6,4.49,16.7,13.58,16.7c3.97,0,6.15-0.99,8.58-2.89l1.09,1.38
	c-2.63,3.75-8.14,7.3-15.44,7.3C180.46,85.64,172.39,77.36,172.39,65.46L172.39,65.46z M184.24,60.52l11.92-0.26
	c0.06-5.39-0.77-13.15-5.06-13.15c-4.29,0-6.79,7.3-6.92,13.35L184.24,60.52L184.24,60.52z M238.37,56.65l-1.92,0.53
	c-2.05-6.9-5.19-9.8-9.8-9.8c-3.07,0-5.25,2.37-5.25,5.78c0,3.42,2.5,5.2,9.67,8.02c7.17,2.83,9.22,5.65,9.22,11.18
	c0,8.22-6.15,13.28-16.27,13.28c-4.57-0.02-9.1-0.84-13.39-2.43l-0.32-11.37l1.92-0.53c2.76,7.96,6.41,10.85,11.21,10.85
	s6.34-2.96,6.34-6.11c0-3.15-1.73-4.93-8.2-7.3c-6.47-2.37-10.38-4.93-10.38-11.83c0-6.9,5.76-12.43,15.31-12.43
	c4.42,0,8.65,0.79,11.47,2.1L238.37,56.65L238.37,56.65z M126.4,56.32c-5.12-3.55-10.7-1.97-11.79-0.07
	c-0.37,7.01-0.33,14.04,0.13,21.04c0.26,3.22,1.22,4.67,3.59,5l3.07,0.2v2.24H97.76v-2.23l1.67-0.2c2.37-0.33,3.27-1.77,3.59-5
	c0.5-7.55,0.5-15.13,0-22.68c-0.26-3.22-1.22-4.67-3.59-5l-1.67-0.2v-1.58l16.98-3.35l-0.19,9.07c3.97-9.33,11.79-10.58,16.02-7.96
	L126.4,56.32L126.4,56.32z"/>
</svg>
