<?xml version="1.0" encoding="utf-8"?>
<!-- Generator: Adobe Illustrator 24.1.3, SVG Export Plug-In . SVG Version: 6.00 Build 0)  -->
<svg version="1.1" id="Слой_1" xmlns="http://www.w3.org/2000/svg" xmlns:xlink="http://www.w3.org/1999/xlink" x="0px" y="0px"
	 viewBox="0 0 260 160" style="enable-background:new 0 0 260 160;" xml:space="preserve">
<style type="text/css">
	.st0{fill:none;stroke:#BA1C2F;stroke-miterlimit:10;}
	.st1{fill:#FFFFFF;}
</style>
<rect x="0.33" y="0.35" class="st0" width="259.67" height="159.65"/>
<path class="st1" d="M21.6,101.24c0-0.29,0.14-0.43,0.41-0.43h4.47c0.59,0,1.13,0.11,1.64,0.33c0.51,0.22,0.95,0.52,1.32,0.91
	c0.37,0.38,0.66,0.82,0.87,1.33c0.22,0.5,0.32,1.04,0.32,1.6c0,0.56-0.11,1.09-0.32,1.59c-0.21,0.5-0.5,0.94-0.87,1.31
	c-0.37,0.38-0.8,0.68-1.3,0.9c-0.5,0.22-1.04,0.33-1.62,0.33h-3.38v4.65c0,0.26-0.14,0.4-0.4,0.4h-0.76c-0.26,0-0.4-0.13-0.4-0.4
	V101.24z M29.08,104.97c0-0.35-0.07-0.68-0.21-0.99c-0.13-0.32-0.32-0.6-0.55-0.84c-0.23-0.24-0.51-0.43-0.83-0.58
	c-0.32-0.14-0.66-0.22-1.02-0.22h-3.33v5.25h3.33c0.35,0,0.69-0.07,1-0.21c0.32-0.14,0.59-0.34,0.83-0.58
	c0.24-0.25,0.43-0.53,0.57-0.84C29.02,105.66,29.08,105.32,29.08,104.97z M42.17,100.81c0.27,0,0.4,0.14,0.4,0.42v0.73
	c0,0.11-0.04,0.2-0.11,0.29c-0.07,0.08-0.18,0.13-0.32,0.13h-7.48v3.98h5.95c0.11,0,0.2,0.03,0.28,0.1s0.12,0.17,0.12,0.32v0.74
	c0,0.11-0.03,0.2-0.1,0.29c-0.07,0.08-0.17,0.13-0.3,0.13h-5.95v4.69h7.56c0.27,0,0.4,0.14,0.4,0.42v0.75c0,0.26-0.13,0.4-0.4,0.4
	h-8.73c-0.26,0-0.4-0.13-0.4-0.38v-12.57c0-0.28,0.13-0.41,0.4-0.41H42.17z M50.53,99.17c-0.32-0.01-0.61-0.07-0.88-0.18
	c-0.27-0.12-0.51-0.27-0.71-0.46c-0.2-0.19-0.35-0.41-0.47-0.66c-0.11-0.25-0.17-0.5-0.17-0.77c0-0.1,0.03-0.19,0.1-0.25
	c0.07-0.07,0.16-0.1,0.25-0.1h0.6c0.11,0,0.19,0.04,0.26,0.11c0.07,0.07,0.1,0.15,0.1,0.24c0,0.21,0.08,0.4,0.24,0.56
	c0.16,0.16,0.4,0.24,0.71,0.24c0.27,0,0.49-0.07,0.65-0.22c0.17-0.14,0.25-0.31,0.25-0.5c0-0.1,0.02-0.2,0.06-0.29
	c0.05-0.1,0.14-0.14,0.29-0.14h0.52c0.11,0,0.22,0.03,0.31,0.08c0.1,0.05,0.14,0.14,0.14,0.27c0,0.27-0.06,0.53-0.18,0.78
	c-0.11,0.25-0.27,0.47-0.48,0.66c-0.2,0.19-0.44,0.35-0.72,0.46C51.15,99.12,50.85,99.17,50.53,99.17z M46.15,114.18
	c0.13,0,0.24-0.06,0.33-0.17l8.21-10.77v10.55c0,0.26,0.14,0.4,0.41,0.4h0.75c0.26,0,0.4-0.13,0.4-0.4v-12.55
	c0-0.12-0.04-0.22-0.11-0.3c-0.07-0.08-0.17-0.12-0.29-0.12h-1c-0.14,0-0.25,0.06-0.34,0.18l-8.08,10.52v-10.35
	c-0.01-0.11-0.05-0.19-0.13-0.25c-0.07-0.07-0.16-0.1-0.27-0.1h-0.74c-0.11,0-0.21,0.04-0.3,0.11c-0.09,0.07-0.14,0.17-0.14,0.29
	v12.57c0,0.26,0.14,0.4,0.43,0.4H46.15z M67.8,100.81c0.11,0,0.2,0.03,0.29,0.1s0.13,0.17,0.14,0.3v0.74c0,0.12-0.04,0.22-0.12,0.31
	c-0.07,0.08-0.18,0.13-0.32,0.13h-3.84v11.39c0,0.11-0.04,0.21-0.11,0.29c-0.07,0.08-0.17,0.12-0.31,0.12h-0.73
	c-0.12,0-0.22-0.04-0.3-0.11c-0.08-0.08-0.12-0.18-0.12-0.3v-11.39h-3.86c-0.12,0-0.22-0.03-0.3-0.1c-0.07-0.07-0.11-0.18-0.11-0.33
	v-0.74c0-0.12,0.04-0.22,0.11-0.29c0.08-0.07,0.18-0.11,0.3-0.11H67.8z M72.15,114.18c0.13,0,0.24-0.06,0.33-0.17l8.21-10.77v10.55
	c0,0.26,0.14,0.4,0.41,0.4h0.75c0.26,0,0.4-0.13,0.4-0.4v-12.55c0-0.12-0.04-0.22-0.11-0.3c-0.07-0.08-0.17-0.12-0.29-0.12h-1
	c-0.14,0-0.25,0.06-0.34,0.18l-8.08,10.52v-10.35c-0.01-0.11-0.05-0.19-0.13-0.25c-0.07-0.07-0.16-0.1-0.27-0.1H71.3
	c-0.11,0-0.21,0.04-0.3,0.11c-0.09,0.07-0.14,0.17-0.14,0.29v12.57c0,0.26,0.14,0.4,0.43,0.4H72.15z M94.79,101.21
	c0-0.11,0.04-0.2,0.11-0.28c0.07-0.08,0.17-0.12,0.29-0.12h0.74c0.11,0,0.2,0.04,0.29,0.11c0.09,0.07,0.14,0.17,0.14,0.29v12.57
	c0,0.26-0.14,0.4-0.42,0.4h-0.74c-0.26,0-0.4-0.13-0.4-0.4v-5.86h-7.95v5.86c0,0.26-0.14,0.4-0.43,0.4h-0.73
	c-0.26,0-0.4-0.13-0.4-0.4v-12.57c0-0.11,0.03-0.2,0.1-0.28c0.07-0.08,0.17-0.12,0.3-0.12h0.75c0.11,0,0.2,0.04,0.29,0.12
	c0.08,0.08,0.13,0.17,0.13,0.28v5.18h7.95V101.21z M107.43,102.35c0.11,0,0.2-0.04,0.28-0.11c0.08-0.07,0.12-0.17,0.12-0.31v-0.73
	c0-0.11-0.04-0.2-0.11-0.28c-0.07-0.08-0.17-0.12-0.29-0.12h-7.65c-0.26,0-0.4,0.13-0.4,0.4v12.57c0,0.11,0.04,0.2,0.11,0.28
	c0.07,0.08,0.17,0.12,0.31,0.12h0.75c0.11,0,0.21-0.03,0.28-0.1c0.08-0.07,0.12-0.17,0.12-0.3v-11.43H107.43z M122.48,101.81
	c0.79,0.1,1.52,0.31,2.2,0.65c0.68,0.33,1.27,0.75,1.76,1.26c0.5,0.51,0.9,1.09,1.18,1.75c0.29,0.65,0.43,1.33,0.43,2.06
	c0,0.73-0.14,1.42-0.43,2.07c-0.28,0.65-0.67,1.22-1.17,1.73c-0.5,0.5-1.09,0.92-1.76,1.26c-0.68,0.33-1.41,0.54-2.21,0.63v0.57
	c0,0.13-0.04,0.23-0.11,0.3c-0.07,0.07-0.17,0.1-0.3,0.1h-0.75c-0.27,0-0.4-0.13-0.4-0.4v-0.58c-0.78-0.1-1.51-0.31-2.18-0.64
	c-0.67-0.33-1.25-0.75-1.75-1.25c-0.49-0.5-0.88-1.08-1.16-1.73c-0.28-0.65-0.42-1.34-0.42-2.07c0-0.72,0.14-1.4,0.42-2.05
	c0.28-0.65,0.67-1.22,1.16-1.73c0.5-0.5,1.08-0.92,1.75-1.26c0.67-0.34,1.4-0.56,2.18-0.66v-0.6c0-0.12,0.03-0.22,0.1-0.29
	c0.07-0.07,0.17-0.11,0.31-0.11h0.75c0.12,0,0.22,0.04,0.29,0.11c0.08,0.07,0.12,0.17,0.12,0.29V101.81z M126.47,107.51
	c0-0.55-0.1-1.05-0.3-1.52c-0.2-0.47-0.47-0.89-0.83-1.25c-0.35-0.36-0.78-0.66-1.27-0.89c-0.49-0.24-1.02-0.4-1.6-0.49v8.3
	c0.58-0.09,1.11-0.25,1.59-0.49c0.49-0.24,0.92-0.54,1.27-0.9c0.36-0.36,0.64-0.77,0.84-1.23
	C126.37,108.57,126.47,108.06,126.47,107.51z M116.96,107.51c0,0.55,0.1,1.05,0.29,1.52c0.2,0.47,0.47,0.88,0.82,1.24
	c0.35,0.36,0.77,0.66,1.25,0.9c0.49,0.23,1.02,0.4,1.6,0.49v-8.28c-0.58,0.08-1.11,0.24-1.59,0.48s-0.91,0.53-1.26,0.89
	c-0.35,0.36-0.62,0.77-0.82,1.24C117.06,106.45,116.96,106.96,116.96,107.51z M131.66,101.24c0-0.29,0.14-0.43,0.41-0.43h4.47
	c0.59,0,1.13,0.11,1.64,0.33c0.51,0.22,0.95,0.52,1.32,0.91c0.37,0.38,0.66,0.82,0.87,1.33c0.22,0.5,0.32,1.04,0.32,1.6
	c0,0.56-0.1,1.09-0.32,1.59c-0.21,0.5-0.5,0.94-0.87,1.31c-0.37,0.38-0.8,0.68-1.3,0.9c-0.5,0.22-1.04,0.33-1.62,0.33h-3.38v4.65
	c0,0.26-0.13,0.4-0.4,0.4h-0.76c-0.26,0-0.4-0.13-0.4-0.4V101.24z M139.14,104.97c0-0.35-0.07-0.68-0.21-0.99
	c-0.13-0.32-0.31-0.6-0.55-0.84c-0.23-0.24-0.51-0.43-0.83-0.58c-0.32-0.14-0.66-0.22-1.02-0.22h-3.33v5.25h3.33
	c0.35,0,0.69-0.07,1-0.21c0.32-0.14,0.59-0.34,0.83-0.58c0.24-0.25,0.43-0.53,0.57-0.84C139.07,105.66,139.14,105.32,139.14,104.97z
	 M143.89,113.82c-0.1,0.24-0.26,0.36-0.49,0.36h-0.77c-0.26,0-0.39-0.1-0.39-0.29c0-0.05,0.01-0.11,0.02-0.17
	c0.01-0.02,0.02-0.04,0.03-0.06c0.65-1.56,1.22-2.93,1.71-4.12c0.5-1.19,0.93-2.23,1.3-3.11c0.37-0.88,0.68-1.62,0.93-2.22
	s0.46-1.1,0.62-1.49c0.16-0.4,0.29-0.7,0.38-0.91c0.09-0.21,0.16-0.36,0.2-0.46c0.04-0.1,0.07-0.16,0.07-0.18
	c0.01-0.02,0.01-0.03,0.01-0.03c0.02-0.07,0.06-0.14,0.12-0.22c0.06-0.08,0.17-0.12,0.33-0.12h0.53c0.15,0,0.25,0.04,0.31,0.12
	c0.06,0.08,0.1,0.15,0.13,0.22l5.18,12.52c0,0.01,0.01,0.04,0.03,0.09c0.02,0.05,0.04,0.1,0.04,0.13c0,0.1-0.04,0.17-0.12,0.22
	c-0.07,0.05-0.17,0.07-0.29,0.07h-0.77c-0.12,0-0.22-0.03-0.31-0.09c-0.08-0.07-0.14-0.15-0.18-0.25l-1.04-2.58h-6.54L143.89,113.82
	z M145.56,109.72h5.26l-2.62-6.59L145.56,109.72z M166.09,101.21c0-0.11,0.04-0.2,0.11-0.28c0.07-0.08,0.17-0.12,0.29-0.12h0.74
	c0.11,0,0.2,0.04,0.29,0.11c0.09,0.07,0.13,0.17,0.13,0.29v12.57c0,0.26-0.14,0.4-0.42,0.4h-0.74c-0.26,0-0.4-0.13-0.4-0.4v-5.86
	h-7.95v5.86c0,0.26-0.14,0.4-0.43,0.4h-0.73c-0.26,0-0.4-0.13-0.4-0.4v-12.57c0-0.11,0.03-0.2,0.1-0.28
	c0.07-0.08,0.17-0.12,0.3-0.12h0.75c0.11,0,0.2,0.04,0.29,0.12c0.08,0.08,0.13,0.17,0.13,0.28v5.18h7.95V101.21z M184.82,113.78
	c0,0.13-0.04,0.23-0.11,0.3c-0.07,0.07-0.17,0.1-0.3,0.1h-13.36c-0.09,0-0.18-0.04-0.26-0.12c-0.08-0.08-0.12-0.18-0.12-0.29v-12.59
	c0-0.1,0.04-0.19,0.11-0.26c0.08-0.07,0.17-0.11,0.27-0.11h0.79c0.1,0,0.19,0.04,0.27,0.12c0.08,0.07,0.12,0.16,0.12,0.27v11.42
	h4.73v-11.44c0-0.1,0.04-0.19,0.11-0.26c0.08-0.07,0.17-0.11,0.27-0.11h0.79c0.1,0,0.19,0.04,0.27,0.12
	c0.08,0.07,0.12,0.16,0.12,0.27v11.42h4.72V101.2c0-0.11,0.04-0.2,0.12-0.27c0.08-0.08,0.17-0.12,0.27-0.12h0.77
	c0.11,0,0.2,0.04,0.27,0.11c0.08,0.07,0.12,0.16,0.12,0.26L184.82,113.78z M189.09,114.18c0.13,0,0.24-0.06,0.33-0.17l8.21-10.77
	v10.55c0,0.26,0.14,0.4,0.41,0.4h0.75c0.26,0,0.4-0.13,0.4-0.4v-12.55c0-0.12-0.04-0.22-0.11-0.3c-0.07-0.08-0.17-0.12-0.29-0.12h-1
	c-0.14,0-0.25,0.06-0.34,0.18l-8.08,10.52v-10.35c-0.01-0.11-0.05-0.19-0.13-0.25c-0.07-0.07-0.16-0.1-0.27-0.1h-0.74
	c-0.11,0-0.21,0.04-0.3,0.11c-0.09,0.07-0.14,0.17-0.14,0.29v12.57c0,0.26,0.14,0.4,0.43,0.4H189.09z M205.84,100.71
	c0.61,0,1.19,0.06,1.74,0.17c0.55,0.11,1.02,0.3,1.43,0.56c0.41,0.25,0.74,0.58,0.97,1c0.24,0.41,0.36,0.91,0.36,1.5
	c0,0.35-0.04,0.65-0.12,0.91c-0.08,0.25-0.18,0.47-0.31,0.67c-0.13,0.19-0.27,0.35-0.43,0.49c-0.16,0.14-0.32,0.27-0.48,0.4
	l-0.32,0.22c0.34,0.19,0.65,0.41,0.92,0.66c0.27,0.24,0.5,0.51,0.68,0.82c0.19,0.3,0.34,0.63,0.44,0.99
	c0.1,0.36,0.15,0.76,0.15,1.19c0,0.71-0.13,1.33-0.4,1.85c-0.26,0.52-0.62,0.94-1.07,1.28c-0.44,0.34-0.96,0.59-1.56,0.76
	c-0.59,0.16-1.21,0.24-1.87,0.24c-0.41,0-0.81-0.02-1.2-0.06c-0.38-0.04-0.75-0.12-1.1-0.23c-0.35-0.11-0.68-0.27-0.98-0.46
	c-0.3-0.19-0.57-0.44-0.82-0.75v0.01c-0.06-0.07-0.09-0.15-0.09-0.23c0-0.08,0.03-0.15,0.09-0.22h-0.01l0.67-0.66
	c0.07-0.07,0.15-0.1,0.24-0.1c0.08,0,0.15,0.02,0.2,0.07l-0.02-0.01c0.17,0.23,0.36,0.43,0.58,0.58c0.22,0.14,0.46,0.26,0.71,0.34
	c0.26,0.08,0.52,0.14,0.8,0.17c0.28,0.03,0.57,0.05,0.86,0.05c0.45,0,0.88-0.04,1.29-0.11c0.41-0.08,0.78-0.22,1.09-0.41
	c0.32-0.2,0.57-0.47,0.76-0.81c0.19-0.34,0.29-0.78,0.29-1.31c0-0.44-0.07-0.82-0.21-1.15c-0.14-0.34-0.34-0.61-0.59-0.83
	c-0.26-0.22-0.57-0.39-0.93-0.5c-0.36-0.11-0.76-0.17-1.21-0.17h-1.61c-0.19,0-0.29-0.1-0.29-0.29v-0.97c0-0.08,0.02-0.15,0.07-0.21
	c0.05-0.06,0.12-0.09,0.22-0.09h1.67c0.28-0.01,0.56-0.05,0.85-0.14c0.28-0.09,0.53-0.22,0.76-0.39s0.4-0.38,0.54-0.63
	c0.14-0.26,0.21-0.56,0.21-0.92c0-0.31-0.09-0.58-0.26-0.81c-0.17-0.23-0.4-0.43-0.68-0.58c-0.28-0.15-0.59-0.26-0.94-0.33
	c-0.35-0.07-0.7-0.11-1.06-0.11c-0.54,0-1.06,0.1-1.55,0.3c-0.49,0.19-0.89,0.49-1.21,0.88c-0.05,0.04-0.12,0.06-0.19,0.06
	c-0.08,0-0.16-0.04-0.23-0.11v0.01l-0.63-0.6h0.01c-0.06-0.07-0.09-0.14-0.09-0.22c0-0.07,0.03-0.14,0.09-0.22
	c0.43-0.52,0.94-0.91,1.55-1.17C204.22,100.84,204.96,100.71,205.84,100.71z M213.32,101.74c0-0.15,0.03-0.29,0.08-0.42
	c0.06-0.13,0.14-0.25,0.23-0.34c0.1-0.1,0.21-0.17,0.34-0.22s0.27-0.08,0.41-0.08c0.16,0,0.3,0.03,0.43,0.09
	c0.13,0.05,0.25,0.13,0.34,0.23c0.1,0.1,0.18,0.22,0.22,0.36c0.05,0.14,0.08,0.3,0.08,0.48c0,0.38-0.04,0.71-0.12,0.99
	c-0.07,0.28-0.16,0.51-0.27,0.69c-0.1,0.19-0.21,0.33-0.31,0.42c-0.11,0.09-0.2,0.13-0.27,0.13c-0.04,0-0.07,0-0.1-0.01
	c-0.02-0.01-0.05-0.03-0.08-0.05l-0.25-0.2c-0.04-0.03-0.07-0.07-0.09-0.11c-0.02-0.05-0.04-0.09-0.04-0.14
	c0-0.05,0.01-0.09,0.04-0.12c0.02-0.03,0.05-0.07,0.09-0.11c0.05-0.05,0.09-0.11,0.12-0.18c0.04-0.08,0.05-0.17,0.05-0.29v-0.05
	c-0.12-0.02-0.24-0.07-0.35-0.13c-0.11-0.07-0.2-0.15-0.29-0.24c-0.08-0.1-0.15-0.21-0.21-0.33
	C213.34,102,213.32,101.87,213.32,101.74z"/>
<path class="st1" d="M153.72,44.41c-3.22,0.04-6.39,0.87-9.22,2.43c0-8.48,0.13-15.84,0.32-18.67l-16.98,3.35v1.58l1.67,0.2
	c2.37,0.33,3.27,1.78,3.59,5c0.51,6.25,0.45,39.58,0,44.91c4.74,1.15,9.6,1.77,14.48,1.84c13.45,0,21.59-8.55,21.59-22.09
	C169.1,52.17,162.5,44.41,153.72,44.41L153.72,44.41z M147.83,82.35c-0.97-0.01-1.93-0.1-2.88-0.26c-0.26-3.75-0.45-19.2-0.38-32.67
	c1.27-0.47,2.62-0.69,3.97-0.66c5.57,0,8.71,6.64,8.71,14.92C157.18,74.33,153.34,82.35,147.83,82.35L147.83,82.35z M64.04,44.81
	l-2.63,0.72c-2.37-7.89-6.02-12.36-12.88-12.36H39.7c-0.38,5.06-0.58,13.48-0.51,22.22l5.96-0.2c3.97-0.13,5.57-3.16,6.53-7.56h2.24
	v18.54h-2.24c-0.96-4.47-2.63-7.5-6.6-7.63l-5.89-0.2c0.06,6.64,0.26,12.29,0.51,15.65c0.38,4.93,1.73,7.1,5.12,7.63l3.01,0.33v2.24
	h-28.7v-2.23l2.37-0.33c3.4-0.53,4.74-2.7,5.12-7.63c0.64-8.15,0.77-25.05,0-34.52c-0.38-4.86-1.73-7.04-5.12-7.56l-2.37-0.33v-2.17
	h44.65L64.04,44.81L64.04,44.81z M78.33,43.95c12.68,0,18.96,8.81,18.96,20.51c0,11.7-7.11,20.64-19.79,20.64
	c-12.68,0-19.03-8.81-19.03-20.45C58.47,53.03,65.58,43.95,78.33,43.95L78.33,43.95z M77.69,46.45c-5.64,0-7.17,7.76-7.17,18.08
	c0,10.32,2.5,18.08,7.69,18.08c5.19,0,7.17-7.76,7.17-18.08c0-10.32-2.56-18.01-7.75-18.01L77.69,46.45L77.69,46.45z M172.24,64.93
	c0-10.78,6.6-20.91,19.73-20.91c10.63,0,15.69,8.09,15.76,18.67h-23.76c-0.26,9.6,4.49,16.7,13.58,16.7c3.97,0,6.15-0.99,8.58-2.89
	l1.09,1.38c-2.63,3.75-8.14,7.3-15.44,7.3C180.31,85.11,172.24,76.83,172.24,64.93L172.24,64.93z M184.09,59.99L196,59.73
	c0.06-5.39-0.77-13.15-5.06-13.15c-4.29,0-6.79,7.3-6.92,13.35L184.09,59.99L184.09,59.99z M238.22,56.12l-1.92,0.53
	c-2.05-6.9-5.19-9.8-9.8-9.8c-3.07,0-5.25,2.37-5.25,5.78c0,3.42,2.5,5.2,9.67,8.02c7.17,2.83,9.22,5.65,9.22,11.18
	c0,8.22-6.15,13.28-16.27,13.28c-4.57-0.02-9.1-0.84-13.39-2.43l-0.32-11.37l1.92-0.53c2.76,7.95,6.41,10.85,11.21,10.85
	s6.34-2.96,6.34-6.11c0-3.15-1.73-4.93-8.2-7.3c-6.47-2.37-10.38-4.93-10.38-11.83c0-6.9,5.76-12.43,15.31-12.43
	c4.42,0,8.65,0.79,11.47,2.1L238.22,56.12L238.22,56.12z M126.24,55.79c-5.12-3.55-10.7-1.97-11.79-0.07
	c-0.37,7.01-0.33,14.04,0.13,21.04c0.26,3.22,1.22,4.67,3.59,5l3.07,0.2v2.24H97.61v-2.23l1.67-0.2c2.37-0.33,3.27-1.77,3.59-5
	c0.5-7.55,0.5-15.13,0-22.68c-0.26-3.22-1.22-4.67-3.59-5l-1.67-0.2v-1.58l16.98-3.35l-0.19,9.07c3.97-9.33,11.79-10.58,16.02-7.96
	L126.24,55.79L126.24,55.79z"/>
<g>
	<path class="st1" d="M218.21,114.02v-0.08c0-1.67,1.26-3.58,3.79-5.52c2.09-1.62,2.64-2.12,2.64-3.6c0-1.32-0.72-2.39-2.38-2.39
		c-1.62,0-2.43,0.8-2.72,2.49h-1.27c0.23-2.1,1.56-3.62,3.99-3.62c2.65,0,3.73,1.76,3.73,3.47c0,1.92-0.81,2.6-3.12,4.45
		c-1.79,1.42-2.82,2.53-3.17,3.63h6.79l-0.2,1.17H218.21z"/>
	<path class="st1" d="M236.64,107.69c0,2.97-0.8,6.56-4.21,6.56c-3.32,0-4.2-3.33-4.2-6.47c0-3.12,0.94-6.47,4.25-6.47
		C235.79,101.31,236.64,104.62,236.64,107.69z M229.61,107.79c0,2.41,0.47,5.32,2.82,5.32c2.39,0,2.84-2.79,2.84-5.42
		c0-2.4-0.46-5.24-2.77-5.24C230.1,102.44,229.61,105.03,229.61,107.79z"/>
</g>
</svg>
